<svg width="51" height="52" viewBox="0 0 51 52" fill="none" xmlns="http://www.w3.org/2000/svg">
<ellipse cx="25.1958" cy="25.6578" rx="25.1958" ry="25.6578" fill="#0B132B"/>
<path d="M18.4136 32.0223C18.0266 32.4164 18.0266 33.0553 18.4136 33.4493C18.8006 33.8434 19.428 33.8434 19.8149 33.4493L19.1143 32.7358L18.4136 32.0223ZM33.1375 19.4646C33.1375 18.9073 32.6938 18.4555 32.1466 18.4555L23.2287 18.4555C22.6815 18.4555 22.2378 18.9073 22.2378 19.4646C22.2378 20.0218 22.6815 20.4736 23.2287 20.4736H31.1557V28.546C31.1557 29.1032 31.5993 29.555 32.1466 29.555C32.6938 29.555 33.1375 29.1032 33.1375 28.546L33.1375 19.4646ZM19.1143 32.7358L19.8149 33.4493L32.8472 20.1781L32.1466 19.4646L31.4459 18.7511L18.4136 32.0223L19.1143 32.7358Z" fill="white"/>
</svg>
