<svg width="16" height="16" viewBox="0 0 16 16" fill="none" xmlns="http://www.w3.org/2000/svg">
<path d="M7.4522 13.046C7.51336 13.1348 7.5952 13.2074 7.69066 13.2576C7.78613 13.3078 7.89236 13.334 8.0002 13.334C8.10805 13.334 8.21428 13.3078 8.30974 13.2576C8.40521 13.2074 8.48704 13.1348 8.5482 13.046L14.5482 4.37931C14.6177 4.27935 14.6584 4.16227 14.666 4.04078C14.6735 3.9193 14.6477 3.79806 14.5912 3.69024C14.5347 3.58242 14.4498 3.49215 14.3456 3.42922C14.2414 3.36629 14.1219 3.33312 14.0002 3.33331H2.0002C1.87876 3.33382 1.75976 3.36741 1.65599 3.43049C1.55222 3.49357 1.4676 3.58374 1.41125 3.69131C1.35489 3.79888 1.32893 3.91978 1.33614 4.041C1.34336 4.16223 1.38348 4.27919 1.4522 4.37931L7.4522 13.046Z" fill="white"/>
</svg>
