<svg width="52" height="29" viewBox="0 0 52 29" fill="none" xmlns="http://www.w3.org/2000/svg">
<path d="M0 0L3.20378 0.884752H6.40756H12.8151H25.6302H47.2605C49.4696 0.884752 51.2605 2.67561 51.2605 4.88475V24.3121C51.2605 26.5212 49.4696 28.3121 47.2605 28.3121H25.6302H12.8151H6.40756C6.40756 28.3121 4.34411 28.3121 3.20378 28.3121C2.06345 28.3121 0 26.9849 0 26.9849V0Z" fill="#0B132B"/>
<path d="M17.628 20.8777H15.576L9.402 11.5357V20.8777H7.35V8.34968H9.402L15.576 17.6737V8.34968H17.628V20.8777ZM29.4127 15.6757C29.4127 16.0477 29.3887 16.3837 29.3407 16.6837H21.7627C21.8227 17.4757 22.1167 18.1117 22.6447 18.5917C23.1727 19.0717 23.8207 19.3117 24.5887 19.3117C25.6927 19.3117 26.4727 18.8497 26.9287 17.9257H29.1427C28.8427 18.8377 28.2967 19.5877 27.5047 20.1757C26.7247 20.7517 25.7527 21.0397 24.5887 21.0397C23.6407 21.0397 22.7887 20.8297 22.0327 20.4097C21.2887 19.9777 20.7007 19.3777 20.2687 18.6097C19.8487 17.8297 19.6387 16.9297 19.6387 15.9097C19.6387 14.8897 19.8427 13.9957 20.2507 13.2277C20.6707 12.4477 21.2527 11.8477 21.9967 11.4277C22.7527 11.0077 23.6167 10.7977 24.5887 10.7977C25.5247 10.7977 26.3587 11.0017 27.0907 11.4097C27.8227 11.8177 28.3927 12.3937 28.8007 13.1377C29.2087 13.8697 29.4127 14.7157 29.4127 15.6757ZM27.2707 15.0277C27.2587 14.2717 26.9887 13.6657 26.4607 13.2097C25.9327 12.7537 25.2787 12.5257 24.4987 12.5257C23.7907 12.5257 23.1847 12.7537 22.6807 13.2097C22.1767 13.6537 21.8767 14.2597 21.7807 15.0277H27.2707ZM44.752 10.9597L41.674 20.8777H39.514L37.516 13.5517L35.518 20.8777H33.358L30.262 10.9597H32.35L34.42 18.9337L36.526 10.9597H38.668L40.684 18.8977L42.736 10.9597H44.752Z" fill="white"/>
</svg>
